<svg width="79" height="18" viewBox="0 0 79 18" fill="none" xmlns="http://www.w3.org/2000/svg">
<path d="M2.11816 6.1084V13.6846H0V4.1748H1.99512L2.11816 6.1084ZM1.77539 8.57812L1.05469 8.56934C1.05469 7.91309 1.13672 7.30664 1.30078 6.75C1.46484 6.19336 1.70508 5.70996 2.02148 5.2998C2.33789 4.88379 2.73047 4.56445 3.19922 4.3418C3.67383 4.11328 4.22168 3.99902 4.84277 3.99902C5.27637 3.99902 5.67188 4.06348 6.0293 4.19238C6.39258 4.31543 6.70605 4.51172 6.96973 4.78125C7.23926 5.05078 7.44434 5.39648 7.58496 5.81836C7.73145 6.24023 7.80469 6.75 7.80469 7.34766V13.6846H5.68652V7.53223C5.68652 7.06934 5.61621 6.70605 5.47559 6.44238C5.34082 6.17871 5.14453 5.99121 4.88672 5.87988C4.63477 5.7627 4.33301 5.7041 3.98145 5.7041C3.58301 5.7041 3.24316 5.78027 2.96191 5.93262C2.68652 6.08496 2.46094 6.29297 2.28516 6.55664C2.10938 6.82031 1.98047 7.125 1.89844 7.4707C1.81641 7.81641 1.77539 8.18555 1.77539 8.57812ZM7.67285 8.01562L6.67969 8.23535C6.67969 7.66113 6.75879 7.11914 6.91699 6.60938C7.08105 6.09375 7.31836 5.64258 7.62891 5.25586C7.94531 4.86328 8.33496 4.55566 8.79785 4.33301C9.26074 4.11035 9.79102 3.99902 10.3887 3.99902C10.875 3.99902 11.3086 4.06641 11.6895 4.20117C12.0762 4.33008 12.4043 4.53516 12.6738 4.81641C12.9434 5.09766 13.1484 5.46387 13.2891 5.91504C13.4297 6.36035 13.5 6.89941 13.5 7.53223V13.6846H11.373V7.52344C11.373 7.04297 11.3027 6.6709 11.1621 6.40723C11.0273 6.14355 10.834 5.96191 10.582 5.8623C10.3301 5.75684 10.0283 5.7041 9.67676 5.7041C9.34863 5.7041 9.05859 5.76562 8.80664 5.88867C8.56055 6.00586 8.35254 6.17285 8.18262 6.38965C8.0127 6.60059 7.88379 6.84375 7.7959 7.11914C7.71387 7.39453 7.67285 7.69336 7.67285 8.01562ZM21.041 11.7773V7.24219C21.041 6.90234 20.9795 6.60938 20.8564 6.36328C20.7334 6.11719 20.5459 5.92676 20.2939 5.79199C20.0479 5.65723 19.7373 5.58984 19.3623 5.58984C19.0166 5.58984 18.7178 5.64844 18.4658 5.76562C18.2139 5.88281 18.0176 6.04102 17.877 6.24023C17.7363 6.43945 17.666 6.66504 17.666 6.91699H15.5566C15.5566 6.54199 15.6475 6.17871 15.8291 5.82715C16.0107 5.47559 16.2744 5.16211 16.6201 4.88672C16.9658 4.61133 17.3789 4.39453 17.8594 4.23633C18.3398 4.07812 18.8789 3.99902 19.4766 3.99902C20.1914 3.99902 20.8242 4.11914 21.375 4.35938C21.9316 4.59961 22.3682 4.96289 22.6846 5.44922C23.0068 5.92969 23.168 6.5332 23.168 7.25977V11.4873C23.168 11.9209 23.1973 12.3105 23.2559 12.6562C23.3203 12.9961 23.4111 13.292 23.5283 13.5439V13.6846H21.3574C21.2578 13.4561 21.1787 13.166 21.1201 12.8145C21.0674 12.457 21.041 12.1113 21.041 11.7773ZM21.3486 7.90137L21.3662 9.21094H19.8457C19.4531 9.21094 19.1074 9.24902 18.8086 9.3252C18.5098 9.39551 18.2607 9.50098 18.0615 9.6416C17.8623 9.78223 17.7129 9.95215 17.6133 10.1514C17.5137 10.3506 17.4639 10.5762 17.4639 10.8281C17.4639 11.0801 17.5225 11.3115 17.6396 11.5225C17.7568 11.7275 17.9268 11.8887 18.1494 12.0059C18.3779 12.123 18.6533 12.1816 18.9756 12.1816C19.4092 12.1816 19.7871 12.0938 20.1094 11.918C20.4375 11.7363 20.6953 11.5166 20.8828 11.2588C21.0703 10.9951 21.1699 10.7461 21.1816 10.5117L21.8672 11.4521C21.7969 11.6924 21.6768 11.9502 21.5068 12.2256C21.3369 12.501 21.1143 12.7646 20.8389 13.0166C20.5693 13.2627 20.2441 13.4648 19.8633 13.623C19.4883 13.7812 19.0547 13.8604 18.5625 13.8604C17.9414 13.8604 17.3877 13.7373 16.9014 13.4912C16.415 13.2393 16.0342 12.9023 15.7588 12.4805C15.4834 12.0527 15.3457 11.5693 15.3457 11.0303C15.3457 10.5264 15.4395 10.0811 15.627 9.69434C15.8203 9.30176 16.1016 8.97363 16.4707 8.70996C16.8457 8.44629 17.3027 8.24707 17.8418 8.1123C18.3809 7.97168 18.9961 7.90137 19.6875 7.90137H21.3486ZM31.4736 4.1748H33.3984V13.4209C33.3984 14.2764 33.2168 15.0029 32.8535 15.6006C32.4902 16.1982 31.9834 16.6523 31.333 16.9629C30.6826 17.2793 29.9297 17.4375 29.0742 17.4375C28.7109 17.4375 28.3066 17.3848 27.8613 17.2793C27.4219 17.1738 26.9941 17.0039 26.5781 16.7695C26.168 16.541 25.8252 16.2393 25.5498 15.8643L26.543 14.6162C26.8828 15.0205 27.2578 15.3164 27.668 15.5039C28.0781 15.6914 28.5088 15.7852 28.96 15.7852C29.4463 15.7852 29.8594 15.6943 30.1992 15.5127C30.5449 15.3369 30.8115 15.0762 30.999 14.7305C31.1865 14.3848 31.2803 13.9629 31.2803 13.4648V6.32812L31.4736 4.1748ZM25.0137 9.03516V8.85059C25.0137 8.12988 25.1016 7.47363 25.2773 6.88184C25.4531 6.28418 25.7051 5.77148 26.0332 5.34375C26.3613 4.91016 26.7598 4.5791 27.2285 4.35059C27.6973 4.11621 28.2275 3.99902 28.8193 3.99902C29.4346 3.99902 29.959 4.11035 30.3926 4.33301C30.832 4.55566 31.1982 4.875 31.4912 5.29102C31.7842 5.70117 32.0127 6.19336 32.1768 6.76758C32.3467 7.33594 32.4727 7.96875 32.5547 8.66602V9.25488C32.4785 9.93457 32.3496 10.5557 32.168 11.1182C31.9863 11.6807 31.7461 12.167 31.4473 12.5771C31.1484 12.9873 30.7793 13.3037 30.3398 13.5264C29.9062 13.749 29.3936 13.8604 28.8018 13.8604C28.2217 13.8604 27.6973 13.7402 27.2285 13.5C26.7656 13.2598 26.3672 12.9229 26.0332 12.4893C25.7051 12.0557 25.4531 11.5459 25.2773 10.96C25.1016 10.3682 25.0137 9.72656 25.0137 9.03516ZM27.1318 8.85059V9.03516C27.1318 9.46875 27.1729 9.87305 27.2549 10.248C27.3428 10.623 27.4746 10.9541 27.6504 11.2412C27.832 11.5225 28.0605 11.7451 28.3359 11.9092C28.6172 12.0674 28.9482 12.1465 29.3291 12.1465C29.8271 12.1465 30.2344 12.041 30.5508 11.8301C30.873 11.6191 31.1191 11.335 31.2891 10.9775C31.4648 10.6143 31.5879 10.21 31.6582 9.76465V8.17383C31.623 7.82812 31.5498 7.50586 31.4385 7.20703C31.333 6.9082 31.1895 6.64746 31.0078 6.4248C30.8262 6.19629 30.5977 6.02051 30.3223 5.89746C30.0469 5.76855 29.7217 5.7041 29.3467 5.7041C28.9658 5.7041 28.6348 5.78613 28.3535 5.9502C28.0723 6.11426 27.8408 6.33984 27.6592 6.62695C27.4834 6.91406 27.3516 7.24805 27.2637 7.62891C27.1758 8.00977 27.1318 8.41699 27.1318 8.85059ZM37.6963 6.20508V13.6846H35.5781V4.1748H37.5732L37.6963 6.20508ZM37.3184 8.57812L36.6328 8.56934C36.6387 7.89551 36.7324 7.27734 36.9141 6.71484C37.1016 6.15234 37.3594 5.66895 37.6875 5.26465C38.0215 4.86035 38.4199 4.5498 38.8828 4.33301C39.3457 4.11035 39.8613 3.99902 40.4297 3.99902C40.8867 3.99902 41.2998 4.06348 41.6689 4.19238C42.0439 4.31543 42.3633 4.51758 42.627 4.79883C42.8965 5.08008 43.1016 5.44629 43.2422 5.89746C43.3828 6.34277 43.4531 6.89062 43.4531 7.54102V13.6846H41.3262V7.53223C41.3262 7.0752 41.2588 6.71484 41.124 6.45117C40.9951 6.18164 40.8047 5.99121 40.5527 5.87988C40.3066 5.7627 39.999 5.7041 39.6299 5.7041C39.2666 5.7041 38.9414 5.78027 38.6543 5.93262C38.3672 6.08496 38.124 6.29297 37.9248 6.55664C37.7314 6.82031 37.582 7.125 37.4766 7.4707C37.3711 7.81641 37.3184 8.18555 37.3184 8.57812ZM47.8828 4.1748V13.6846H45.7559V4.1748H47.8828ZM45.6152 1.67871C45.6152 1.35645 45.7207 1.08984 45.9316 0.878906C46.1484 0.662109 46.4473 0.553711 46.8281 0.553711C47.2031 0.553711 47.499 0.662109 47.7158 0.878906C47.9326 1.08984 48.041 1.35645 48.041 1.67871C48.041 1.99512 47.9326 2.25879 47.7158 2.46973C47.499 2.68066 47.2031 2.78613 46.8281 2.78613C46.4473 2.78613 46.1484 2.68066 45.9316 2.46973C45.7207 2.25879 45.6152 1.99512 45.6152 1.67871ZM52.9277 13.6846H50.8008V3.55957C50.8008 2.79199 50.9531 2.14453 51.2578 1.61719C51.5684 1.08984 52.0107 0.688477 52.585 0.413086C53.165 0.137695 53.8535 0 54.6504 0C55.1191 0 55.5703 0.0498047 56.0039 0.149414C56.4434 0.249023 56.8975 0.375 57.3662 0.527344L57.041 2.25C56.7422 2.15039 56.4111 2.05664 56.0479 1.96875C55.6846 1.875 55.2656 1.82812 54.791 1.82812C54.1523 1.82812 53.6807 1.97461 53.376 2.26758C53.0771 2.55469 52.9277 2.98535 52.9277 3.55957V13.6846ZM54.835 4.1748V5.72168H49.3418V4.1748H54.835ZM58.3682 4.1748V13.6846H56.25V4.1748H58.3682ZM64.6172 12.1729C64.9629 12.1729 65.2734 12.1055 65.5488 11.9707C65.8301 11.8301 66.0557 11.6367 66.2256 11.3906C66.4014 11.1445 66.498 10.8604 66.5156 10.5381H68.5107C68.499 11.1533 68.3174 11.7129 67.9658 12.2168C67.6143 12.7207 67.1484 13.1221 66.5684 13.4209C65.9883 13.7139 65.3467 13.8604 64.6436 13.8604C63.917 13.8604 63.2842 13.7373 62.7451 13.4912C62.2061 13.2393 61.7578 12.8936 61.4004 12.4541C61.043 12.0146 60.7734 11.5078 60.5918 10.9336C60.416 10.3594 60.3281 9.74414 60.3281 9.08789V8.78027C60.3281 8.12402 60.416 7.50879 60.5918 6.93457C60.7734 6.35449 61.043 5.84473 61.4004 5.40527C61.7578 4.96582 62.2061 4.62305 62.7451 4.37695C63.2842 4.125 63.9141 3.99902 64.6348 3.99902C65.3965 3.99902 66.0645 4.15137 66.6387 4.45605C67.2129 4.75488 67.6641 5.17383 67.9922 5.71289C68.3262 6.24609 68.499 6.86719 68.5107 7.57617H66.5156C66.498 7.22461 66.4102 6.9082 66.252 6.62695C66.0996 6.33984 65.8828 6.11133 65.6016 5.94141C65.3262 5.77148 64.9951 5.68652 64.6084 5.68652C64.1807 5.68652 63.8262 5.77441 63.5449 5.9502C63.2637 6.12012 63.0439 6.35449 62.8857 6.65332C62.7275 6.94629 62.6133 7.27734 62.543 7.64648C62.4785 8.00977 62.4463 8.3877 62.4463 8.78027V9.08789C62.4463 9.48047 62.4785 9.86133 62.543 10.2305C62.6074 10.5996 62.7188 10.9307 62.877 11.2236C63.041 11.5107 63.2637 11.7422 63.5449 11.918C63.8262 12.0879 64.1836 12.1729 64.6172 12.1729ZM69.7324 9.03516V8.83301C69.7324 8.14746 69.832 7.51172 70.0312 6.92578C70.2305 6.33398 70.5176 5.82129 70.8926 5.3877C71.2734 4.94824 71.7363 4.6084 72.2812 4.36816C72.832 4.12207 73.4531 3.99902 74.1445 3.99902C74.8418 3.99902 75.4629 4.12207 76.0078 4.36816C76.5586 4.6084 77.0244 4.94824 77.4053 5.3877C77.7861 5.82129 78.0762 6.33398 78.2754 6.92578C78.4746 7.51172 78.5742 8.14746 78.5742 8.83301V9.03516C78.5742 9.7207 78.4746 10.3564 78.2754 10.9424C78.0762 11.5283 77.7861 12.041 77.4053 12.4805C77.0244 12.9141 76.5615 13.2539 76.0166 13.5C75.4717 13.7402 74.8535 13.8604 74.1621 13.8604C73.4648 13.8604 72.8408 13.7402 72.29 13.5C71.7451 13.2539 71.2822 12.9141 70.9014 12.4805C70.5205 12.041 70.2305 11.5283 70.0312 10.9424C69.832 10.3564 69.7324 9.7207 69.7324 9.03516ZM71.8506 8.83301V9.03516C71.8506 9.46289 71.8945 9.86719 71.9824 10.248C72.0703 10.6289 72.208 10.9629 72.3955 11.25C72.583 11.5371 72.8232 11.7627 73.1162 11.9268C73.4092 12.0908 73.7578 12.1729 74.1621 12.1729C74.5547 12.1729 74.8945 12.0908 75.1816 11.9268C75.4746 11.7627 75.7148 11.5371 75.9023 11.25C76.0898 10.9629 76.2275 10.6289 76.3154 10.248C76.4092 9.86719 76.4561 9.46289 76.4561 9.03516V8.83301C76.4561 8.41113 76.4092 8.0127 76.3154 7.6377C76.2275 7.25684 76.0869 6.91992 75.8936 6.62695C75.7061 6.33398 75.4658 6.10547 75.1729 5.94141C74.8857 5.77148 74.543 5.68652 74.1445 5.68652C73.7461 5.68652 73.4004 5.77148 73.1074 5.94141C72.8203 6.10547 72.583 6.33398 72.3955 6.62695C72.208 6.91992 72.0703 7.25684 71.9824 7.6377C71.8945 8.0127 71.8506 8.41113 71.8506 8.83301Z" fill="#0F172A"/>
</svg>
